<svg width="64" height="64" viewBox="0 0 64 64" fill="none" xmlns="http://www.w3.org/2000/svg">
<path fill-rule="evenodd" clip-rule="evenodd" d="M33.7035 49C33.3247 49 32.9785 48.786 32.8091 48.4472L21.881 26.591C21.7402 26.3095 21.7402 25.9781 21.881 25.6966L28.9259 11.6068C29.2944 10.8697 30.3462 10.8697 30.7147 11.6068L48.6877 47.5528C49.0202 48.2177 48.5367 49 47.7933 49H33.7035ZM36.9777 43.558C36.5942 43.558 36.2445 43.3388 36.0775 42.9936L28.3898 27.1057C28.2616 26.8408 28.2566 26.5329 28.3761 26.264L29.4809 23.7784C29.8279 22.9974 30.9313 22.9835 31.298 23.7554L40.0254 42.129C40.3406 42.7925 39.8567 43.558 39.1221 43.558H36.9777Z" fill="#467AFF"/>
<path d="M6.96366 44.4983L5.02034 47.4501C4.5826 48.115 5.05951 49 5.85559 49H17.2716C18.0406 49 18.5218 48.1683 18.1386 47.5016L15.8852 43.5819C15.6828 43.2299 15.2877 43.0352 14.8853 43.0892L7.66603 44.057C7.37907 44.0955 7.12286 44.2564 6.96366 44.4983Z" fill="#467AFF"/>
<path d="M43.032 12.5179L37.8146 21.4608C37.6221 21.7908 37.6344 22.2016 37.8463 22.5194L38.909 24.1135C39.2292 24.5938 39.8883 24.704 40.3473 24.3541L41.0717 23.8019C41.5687 23.4231 42.2874 23.5877 42.5699 24.145L54.8912 48.4521C55.0615 48.7882 55.4063 49 55.7831 49H63C63.5523 49 64 48.5523 64 48V47.4564C64 47.2866 63.9568 47.1197 63.8744 46.9712L44.7702 12.5367C44.3941 11.8587 43.4228 11.8482 43.032 12.5179Z" fill="#467AFF"/>
<path d="M10.3369 35.3431L15.7768 24.7351C16.1486 24.0102 17.1847 24.0102 17.5565 24.7351L29.2532 47.5437C29.5944 48.2091 29.1112 49 28.3634 49H23.9443C23.5692 49 23.2257 48.7901 23.0545 48.4563L16.1736 35.0386C15.8666 34.4398 15.0676 34.3091 14.5857 34.7789L12.3648 36.9444C11.9764 37.323 11.3569 37.323 10.9686 36.9444L10.5286 36.5154C10.2144 36.209 10.1366 35.7336 10.3369 35.3431Z" fill="#467AFF"/>
</svg>
